<svg width="119" height="19" viewBox="0 0 119 19" fill="none" xmlns="http://www.w3.org/2000/svg">
<path fill-rule="evenodd" clip-rule="evenodd" d="M10.3947 3.07862C10.3947 3.07862 10.1402 9.85429 16.935 9.11984C16.935 9.11984 17.5365 7.11656 16.1142 6.83142C14.6927 6.54629 11.5905 6.18708 10.3947 3.07862" fill="#AB9385"/>
<path fill-rule="evenodd" clip-rule="evenodd" d="M10.7949 4.38428C10.7949 4.38428 11.3452 8.86663 16.3629 8.65581C16.3629 8.65581 16.6175 7.5099 15.7483 7.37085C14.8785 7.2318 12.194 6.88505 10.7949 4.38428" fill="#BDA293"/>
<mask id="mask0_2750_3857" style="mask-type:luminance" maskUnits="userSpaceOnUse" x="1" y="0" width="118" height="19">
<path fill-rule="evenodd" clip-rule="evenodd" d="M1.16093 16.2909L117.789 18.3267L118.062 2.70567L1.43359 0.669922L1.16093 16.2909H1.16093Z" fill="white"/>
</mask>
<g mask="url(#mask0_2750_3857)">
<path fill-rule="evenodd" clip-rule="evenodd" d="M71.8983 10.735C74.1546 10.821 74.8301 10.2538 75.9478 10.7854C77.0655 11.3174 77.5322 12.0732 78.2862 12.7331C79.0409 13.3934 80.3998 14.0295 81.9363 13.9361C83.8432 13.82 84.6021 12.7324 84.9376 11.829C85.273 10.9252 85.9275 9.83586 87.8114 9.66019C90.2853 9.42974 93.1464 11.0079 94.9895 10.2011C95.8794 9.81137 95.7639 9.06723 96.6708 8.68666C97.7678 8.22585 99.5979 8.6087 100.518 9.17535C101.439 9.74164 101.902 10.4619 102.935 10.9821C103.969 11.5023 106.022 11.6912 106.767 11.0896C106.921 9.62398 111.48 9.22063 113.323 8.9825C115.167 8.74439 112.669 7.85179 114.199 7.32125C115.729 6.79109 117.744 7.0666 117.974 6.25047C118.203 5.43432 117.07 4.62176 115.6 4.16716C114.129 3.71254 112.373 3.54434 110.663 3.39949C88.544 1.52323 66.0226 1.95988 43.7132 2.40282C31.0823 2.65381 18.367 2.90997 6.11004 4.26238C4.79167 4.40798 3.42409 4.57935 2.42816 5.01013C1.43299 5.44129 0.950496 6.21123 1.71259 6.76107C2.67956 7.45796 4.85934 7.40468 6.30236 7.87766C7.64072 8.3159 8.15754 9.12696 9.11179 9.7541C14.9774 13.6063 16.3071 9.0381 18.8096 9.91931C20.0845 10.4459 20.4302 11.3065 20.6463 12.0968C20.8632 12.8871 21.0874 13.7407 22.2288 14.333C23.3702 14.9257 25.7863 14.9912 26.4128 14.2641C26.7161 13.9137 26.5247 13.4829 26.9213 13.1548C27.7531 12.4656 30.1871 12.9237 30.9119 13.6604C31.6374 14.3974 31.4914 15.2657 32.1983 16.0061C32.906 16.7469 35.3009 17.2324 36.1849 16.5586C37.3308 16.0554 37.4917 15.2173 37.3841 14.4634C37.2765 13.7094 36.9805 12.9284 37.4751 12.219C37.9705 11.5095 39.644 10.9271 41.096 11.2427C41.7529 11.3858 42.2308 11.6811 42.8893 11.8235C44.204 12.1079 45.7015 11.6807 46.5576 11.1458C47.4129 10.6109 47.9453 9.95161 48.9904 9.50062C50.0362 9.04926 51.9317 8.92039 52.778 9.48168C52.7947 9.98856 54.2531 10.2407 55.2217 10.0472C56.1918 9.85373 56.8041 9.40923 57.5225 9.04571C58.2402 8.68218 59.3053 8.37019 60.3092 8.5482C60.7061 9.21961 59.0407 10.1793 61.5001 10.5621C63.9586 10.9448 65.9223 8.90169 67.9064 9.24323C69.8904 9.5844 69.6419 10.6491 71.8983 10.735" fill="#E3E3E3"/>
</g>
<mask id="mask1_2750_3857" style="mask-type:luminance" maskUnits="userSpaceOnUse" x="0" y="0" width="117" height="18">
<path fill-rule="evenodd" clip-rule="evenodd" d="M0.283203 0.000976562L0.0105363 15.622L116.639 17.6578L116.911 2.03673L0.283203 0.000976562V0.000976562Z" fill="white"/>
</mask>
<g mask="url(#mask1_2750_3857)">
<path fill-rule="evenodd" clip-rule="evenodd" d="M70.7479 10.0661C73.0042 10.1521 73.6797 9.58481 74.7974 10.1164C75.9151 10.6485 76.3818 11.4043 77.1358 12.0645C77.8905 12.7244 79.2494 13.3605 80.7859 13.2672C82.6928 13.1514 83.4517 12.0639 83.7872 11.1601C84.1226 10.2563 84.7771 9.16691 86.661 8.99124C89.1349 8.76117 91.996 10.339 93.8391 9.53216C94.729 9.14243 94.6135 8.39828 95.5204 8.01771C96.6174 7.55727 98.4475 7.94013 99.3672 8.5064C100.288 9.07307 100.751 9.79295 101.785 10.3131C102.819 10.8333 104.871 11.0223 105.616 10.4207C105.771 8.9554 110.33 8.55169 112.173 8.31356C114.017 8.07544 111.518 7.18284 113.049 6.65231C114.579 6.12214 116.593 6.39766 116.824 5.58152C117.053 4.76537 115.92 3.95281 114.45 3.49821C112.978 3.0436 111.223 2.87577 109.512 2.73054C87.3936 0.854282 64.8722 1.29093 42.5628 1.73388C29.9319 1.98486 17.2166 2.24103 4.95965 3.59343C3.64128 3.73904 2.2737 3.9104 1.27776 4.34155C0.282598 4.77234 -0.199895 5.54229 0.562201 6.09213C1.52916 6.78939 3.70894 6.7361 5.15197 7.20871C6.49033 7.64696 7.00715 8.45801 7.9614 9.08516C13.827 12.9374 15.1568 8.36953 17.6592 9.25037C18.9341 9.77699 19.2798 10.6376 19.4959 11.4278C19.7128 12.2181 19.937 13.0718 21.0784 13.6645C22.2198 14.2568 24.6359 14.3226 25.2624 13.5955C25.5658 13.2447 25.3743 12.8139 25.771 12.4858C26.6027 11.7967 29.0367 12.2548 29.7615 12.9918C30.487 13.7285 30.341 14.5968 31.048 15.3372C31.7556 16.078 34.1505 16.5635 35.0345 15.8897C36.1804 15.3865 36.3413 14.5484 36.2337 13.7944C36.1261 13.0408 35.8301 12.2598 36.3247 11.55C36.8201 10.8406 38.4936 10.2582 39.9456 10.5742C40.6025 10.7173 41.0804 11.0122 41.7389 11.1546C43.0536 11.4389 44.5511 11.0121 45.4072 10.4772C46.2625 9.94192 46.7949 9.28267 47.84 8.83167C48.8858 8.38032 50.7813 8.25144 51.6276 8.81274C51.6443 9.31961 53.1028 9.57174 54.0721 9.37826C55.0414 9.18515 55.6537 8.74028 56.3721 8.37676C57.0898 8.01323 58.1549 7.70125 59.1588 7.87925C59.5557 8.55066 57.8903 9.51036 60.3497 9.8931C62.8082 10.2762 64.772 8.23274 66.756 8.57428C68.74 8.91583 68.4916 9.9805 70.7479 10.0661" fill="#F4F4F4"/>
</g>
<mask id="mask2_2750_3857" style="mask-type:luminance" maskUnits="userSpaceOnUse" x="0" y="0" width="114" height="12">
<path fill-rule="evenodd" clip-rule="evenodd" d="M113.577 2.06611L1.05664 0.102051L0.88526 9.92045L113.406 11.8845L113.577 2.06611V2.06611Z" fill="white"/>
</mask>
<g mask="url(#mask2_2750_3857)">
<path fill-rule="evenodd" clip-rule="evenodd" d="M114.409 3.48734C112.946 3.04175 111.206 2.87419 109.51 2.73033C87.392 0.854082 64.8706 1.29074 42.5611 1.73405C29.9302 1.98466 17.2149 2.24083 4.95797 3.5936C3.87304 3.71296 2.75911 3.85289 1.84235 4.13751C1.91183 4.32546 2.05652 4.50584 2.29596 4.66754C3.67528 5.59719 6.88255 5.34552 8.57602 6.14827C9.82347 6.7395 10.1339 7.84313 11.8255 8.0446C14.0323 8.30757 15.8871 6.6501 17.9597 7.10929C20.2041 7.60699 18.7299 9.76401 21.0925 10.1037C22.6019 10.3204 23.6988 9.47025 24.1886 8.76699C24.6785 8.06336 25.6704 7.19951 27.2063 7.3624C28.5328 7.50314 28.9586 8.29522 29.1889 8.93451C29.4185 9.57415 30.0982 10.3651 31.4496 10.3658C33.6927 10.3669 33.29 8.38118 35.3808 8.02054C37.178 7.71061 38.8278 8.8857 40.7545 8.87459C43.796 8.85742 44.2342 6.14134 47.2761 6.23067C48.9773 6.28071 49.9939 7.23952 51.6265 7.49357C54.9604 8.01287 57.8717 5.38137 61.0599 6.08967C60.3744 6.69559 62.205 7.35615 63.6462 7.2689C65.0882 7.18166 66.3392 6.72797 67.7905 6.67713C69.2172 6.62734 70.5827 6.9725 71.8532 7.30677C73.6515 7.78003 75.4505 8.25368 77.2496 8.72696C78.4092 9.03229 79.8163 9.34232 80.9645 9.0573C82.4299 8.69277 82.3982 7.62912 83.6517 7.11817C85.8563 6.21891 89.3356 7.72249 92.1509 7.35637C94.095 7.10374 95.1954 6.0103 97.1859 5.84796C100.268 5.59669 103.036 7.72091 105.928 7.17273C107.668 6.84331 108.105 5.73311 109.619 5.21377C110.737 4.82985 112.305 4.81766 113.371 4.40179C113.962 4.17103 114.291 3.84433 114.409 3.48734" fill="#FEFEFE"/>
</g>
<path fill-rule="evenodd" clip-rule="evenodd" d="M106.971 3.75521C108.396 3.71132 109.998 3.36913 110.644 2.83278C110.265 2.79548 109.887 2.76151 109.509 2.7294C87.3907 0.853518 64.8693 1.29017 42.5599 1.73311C30.8736 1.96509 19.1152 2.20357 7.71405 3.30911C8.43423 3.95473 9.22508 4.58642 10.3356 5.08725C11.6895 5.69734 13.6333 6.08477 15.3889 5.85251C17.0445 5.63329 18.5466 4.89519 20.2014 5.15999C21.563 5.37789 22.4491 6.23125 23.8613 6.16309C25.3835 6.08982 25.9144 4.9846 27.4395 4.92433C29.1869 4.85499 30.0305 6.1861 31.7856 6.2526C34.1889 6.3441 34.7165 4.09623 37.097 4.2953C38.54 4.41589 39.0216 5.38311 40.3807 5.65421C41.6457 5.90666 42.9772 5.44661 43.8849 4.97621C44.7933 4.50581 45.8007 3.95025 47.1587 3.96878C48.6422 3.98987 49.7683 4.69989 51.2385 4.8154C54.1386 5.04315 55.6142 2.9834 58.5045 2.80052C61.449 2.61415 63.5326 4.43504 66.5036 4.59672C68.6718 4.71444 70.7201 3.90489 72.8587 4.12674C74.8768 4.33612 76.4809 5.42537 78.4865 5.23962C80.4874 5.05416 81.0894 3.7383 82.9628 3.36573C85.2829 2.90408 87.7384 4.12614 90.2763 4.12792C91.774 4.12929 93.0841 3.70547 94.4959 3.4857C98.4479 2.87097 102.796 3.88424 106.971 3.75521" fill="white"/>
</svg>
